<svg width="32" height="24" viewBox="0 0 32 24" fill="none" xmlns="http://www.w3.org/2000/svg">
  <rect width="32" height="24" rx="4" fill="#F7F7F7" />
  <path d="M20.4 12C20.4 14.7614 18.1614 17 15.4 17C12.6386 17 10.4 14.7614 10.4 12C10.4 9.23858 12.6386 7 15.4 7C18.1614 7 20.4 9.23858 20.4 12Z" fill="#EB001B" />
  <path d="M21.6 12C21.6 14.7614 19.3614 17 16.6 17C13.8386 17 11.6 14.7614 11.6 12C11.6 9.23858 13.8386 7 16.6 7C19.3614 7 21.6 9.23858 21.6 12Z" fill="#F79E1B" />
  <path fillRule="evenodd" clipRule="evenodd" d="M16 14.5C17.3807 14.5 18.5 13.3807 18.5 12C18.5 10.6193 17.3807 9.5 16 9.5C14.6193 9.5 13.5 10.6193 13.5 12C13.5 13.3807 14.6193 14.5 16 14.5Z" fill="#FF5F00" />
</svg>
